<svg class="wish-happy-logo" viewBox="0 0 1411 2497" xmlns="http://www.w3.org/2000/svg">
    <defs>
        <filter id="b" width="200%" height="200%" x="-50%" y="-50%" filterUnits="objectBoundingBox">
            <feOffset dy="2" in="SourceAlpha" result="shadowOffsetOuter1"/>
            <feGaussianBlur stdDeviation="17" in="shadowOffsetOuter1" result="shadowBlurOuter1"/>
            <feColorMatrix values="0 0 0 0 0.850366709 0 0 0 0 0.850366709 0 0 0 0 0.850366709 0 0 0 0.35 0" in="shadowBlurOuter1" result="shadowMatrixOuter1"/>
            <feMerge>
                <feMergeNode in="shadowMatrixOuter1"/>
                <feMergeNode in="SourceGraphic"/>
            </feMerge>
        </filter>
        <path id="a" d="M0 0h1345v2431H0z"/>
    </defs>
    <g fill="none" fill-rule="evenodd">
        <g class="moveSecondPlane">
            <g transform="translate(133 -1947)">
                <path fill="#4990E2" d="M232 815c22.6 0 41-18.4 41-41s-18.4-41-41-41v82z"/>
                <path fill="#B68253" d="M54 181c-22.6 0-41-18.4-41-41s18.4-41 41-41v82z"/>
                <path fill="#EF3510" d="M1150 1342c-22.6 0-41-18.4-41-41s18.4-41 41-41v82z"/>
                <path fill="#FFAC23" d="M944.5 161.7H912l16.3 28.2 16.2 28 16.2-28 16.3-28.7"/>
                <path fill="#EF3510" d="M231.5 1039.7H199l16.3 28.2 16.2 28 16.2-28 16.3-28.7"/>
                <path fill="#1F71BD" d="M981.5 627.7H949l16.3 28.2 16.2 28 16.2-28 16.3-28.7"/>
                <circle cx="1114.5" cy="34.5" r="34.5" fill="#1F71BD"/>
                <circle cx="217.5" cy="275.5" r="34.5" fill="#FFAC23"/>
                <circle cx="622.5" cy="1376.5" r="34.5" fill="#B68253"/>
                <path fill="#EF3510" d="M83 425h19v146H83z"/>
                <path fill="#FFAC23" d="M272 1251h19v146h-19zm734-319h19v146h-19z"/>
                <path fill="#EF3510" d="M1120 260h18v366h-18z"/>
                <path fill="#1F71BD" d="M0 892h18v366H0z"/>
            </g>
            <g transform="translate(133 -480)">
                <path fill="#4990E2" d="M232 815c22.6 0 41-18.4 41-41s-18.4-41-41-41v82z"/>
                <path fill="#B68253" d="M54 181c-22.6 0-41-18.4-41-41s18.4-41 41-41v82z"/>
                <path fill="#EF3510" d="M1150 1342c-22.6 0-41-18.4-41-41s18.4-41 41-41v82z"/>
                <path fill="#FFAC23" d="M944.5 161.7H912l16.3 28.2 16.2 28 16.2-28 16.3-28.7"/>
                <path fill="#EF3510" d="M231.5 1039.7H199l16.3 28.2 16.2 28 16.2-28 16.3-28.7"/>
                <path fill="#1F71BD" d="M981.5 627.7H949l16.3 28.2 16.2 28 16.2-28 16.3-28.7"/>
                <circle cx="1114.5" cy="34.5" r="34.5" fill="#1F71BD"/>
                <circle cx="217.5" cy="275.5" r="34.5" fill="#FFAC23"/>
                <circle cx="622.5" cy="1376.5" r="34.5" fill="#B68253"/>
                <path fill="#EF3510" d="M83 425h19v146H83z"/>
                <path fill="#FFAC23" d="M272 1251h19v146h-19zm734-319h19v146h-19z"/>
                <path fill="#EF3510" d="M1120 260h18v366h-18z"/>
                <path fill="#1F71BD" d="M0 892h18v366H0z"/>
            </g>
            <g transform="translate(133 987)">
                <path fill="#4990E2" d="M232 815c22.6 0 41-18.4 41-41s-18.4-41-41-41v82z"/>
                <path fill="#B68253" d="M54 181c-22.6 0-41-18.4-41-41s18.4-41 41-41v82z"/>
                <path fill="#EF3510" d="M1150 1342c-22.6 0-41-18.4-41-41s18.4-41 41-41v82z"/>
                <path fill="#FFAC23" d="M944.5 161.7H912l16.3 28.2 16.2 28 16.2-28 16.3-28.7"/>
                <path fill="#EF3510" d="M231.5 1039.7H199l16.3 28.2 16.2 28 16.2-28 16.3-28.7"/>
                <path fill="#1F71BD" d="M981.5 627.7H949l16.3 28.2 16.2 28 16.2-28 16.3-28.7"/>
                <circle cx="1114.5" cy="34.5" r="34.5" fill="#1F71BD"/>
                <circle cx="217.5" cy="275.5" r="34.5" fill="#FFAC23"/>
                <circle cx="622.5" cy="1376.5" r="34.5" fill="#B68253"/>
                <path fill="#EF3510" d="M83 425h19v146H83z"/>
                <path fill="#FFAC23" d="M272 1251h19v146h-19zm734-319h19v146h-19z"/>
                <path fill="#EF3510" d="M1120 260h18v366h-18z"/>
                <path fill="#1F71BD" d="M0 892h18v366H0z"/>
            </g>
            <g transform="translate(133 2454)">
                <path fill="#4990E2" d="M232 815c22.6 0 41-18.4 41-41s-18.4-41-41-41v82z"/>
                <path fill="#B68253" d="M54 181c-22.6 0-41-18.4-41-41s18.4-41 41-41v82z"/>
                <path fill="#EF3510" d="M1150 1342c-22.6 0-41-18.4-41-41s18.4-41 41-41v82z"/>
                <path fill="#FFAC23" d="M944.5 161.7H912l16.3 28.2 16.2 28 16.2-28 16.3-28.7"/>
                <path fill="#EF3510" d="M231.5 1039.7H199l16.3 28.2 16.2 28 16.2-28 16.3-28.7"/>
                <path fill="#1F71BD" d="M981.5 627.7H949l16.3 28.2 16.2 28 16.2-28 16.3-28.7"/>
                <circle cx="1114.5" cy="34.5" r="34.5" fill="#1F71BD"/>
                <circle cx="217.5" cy="275.5" r="34.5" fill="#FFAC23"/>
                <circle cx="622.5" cy="1376.5" r="34.5" fill="#B68253"/>
                <path fill="#EF3510" d="M83 425h19v146H83z"/>
                <path fill="#FFAC23" d="M272 1251h19v146h-19zm734-319h19v146h-19z"/>
                <path fill="#EF3510" d="M1120 260h18v366h-18z"/>
                <path fill="#1F71BD" d="M0 892h18v366H0z"/>
            </g>
        </g>
        <g class="moveFirstPlane">
            <g transform="translate(33 31)">
                <mask id="c" fill="#fff">
                    <use xlink:href="#a"/>
                </mask>
                <use fill="none" filter="url(#b)" xlink:href="#a"/>
                <circle cx="672" cy="184" r="841" fill="#F7A51F" mask="url(#c)"/>
                <circle cx="562" cy="164" r="771" fill="#FFAC23" mask="url(#c)"/>
            </g>
            <g transform="translate(540 181)">
                <rect width="330" height="330" fill="#F9F9F9" rx="30"/>
                <path fill="#F0350F" d="M93 143h147v143l-73-54.6L93 286V143z"/>
                <path fill="#D92906" d="M240 244v-93H93v47.8l55.3 46.3 17.7-13 74 54.5v-42z"/>
                <path fill="#FFAC22" d="M143 108V68H93v130h50v-40h47v40h50V68h-50v40h-47z"/>
            </g>
            <text fill="#FFF" font-family=".Helvetica Neue DeskInterface" font-size="150" transform="translate(33 31)">
                <tspan x="238" y="712">Wish Happy</tspan>
            </text>
            <g transform="translate(461 845)">
                <path fill="#EF3510" d="M149 424h280s-27.5 163.6-30.6 356c-2.7 173.3 15.6 501.8 15.6 501.8V1502l-127.3-101L149 1502V424z"/>
                <path fill="#D92A07" d="M149 578.2V424h280s-27.5 163.6-30.6 356c-2.7 173.3 15.6 51.8 15.6 51.8V1212L149 578.2z"/>
                <path stroke="#FFE4B8" stroke-width="51" d="M45 266v213c0 44.2 35.8 80 80 80h139" stroke-linecap="square"/>
                <path stroke="#377ECB" stroke-width="51" d="M45 306v173c0 44.2 35.8 80 80 80h139" stroke-linecap="square"/>
                <circle cx="44" cy="213" r="44" fill="#FFE4B8"/>
                <path stroke="#FFE4B8" stroke-width="51" d="M404 96v521" stroke-linecap="square"/>
                <path stroke="#377ECB" stroke-width="51" d="M404 136v454" stroke-linecap="square"/>
                <path stroke="#FFE4B8" stroke-width="51" d="M391 756v404" stroke-linecap="square"/>
                <path stroke="#377ECB" stroke-width="51" d="M391 756v298" stroke-linecap="square"/>
                <path stroke="#FFE4B8" stroke-width="51" d="M145 1067V850c0-44.2 36-80 80-80h139" stroke-linecap="square"/>
                <path stroke="#377ECB" stroke-width="51" d="M145 930v-80c0-44.2 36-80 80-80h139" stroke-linecap="square"/>
                <path fill="#FFE4B8" d="M368.5 1177l33 39c-17.7 15 49 127.6 49 127.6 5.4 9.6 3 23-5.5 30.2l-9.2 7.7c-4.2 3.6-10.5 3-14-1.2l-115.8-138c-3.5-4-3-10.4 1.2-14l61.3-51.4z"/>
                <path fill="#8B572A" d="M365.2 1179.7l51.4.8c-7 62.8 49 150.4 49 150.4 5.5 9 3.2 22.4-5.3 30l-9.2 7.3c-4 3.5-10 3-14-1.3l-115.3-137.7c-3.5-4.3-3-10.6 1.3-14l42.5-36z"/>
                <path fill="#FFE4B8" d="M166 1043l-33 39c17.7 15-49 127.6-49 127.6-5.4 9.6-3 23 5.5 30.2l9.2 7.7c4.2 3.6 10.5 3 14-1.2l115.8-138c3.5-4 3-10.4-1.3-14L166 1043z"/>
                <path fill="#8B572A" d="M169.3 1045.7l-51.4.8c7 62.8-49 150.4-49 150.4-6 9-3.7 22.4 5 30l9 7.3c4.2 3.5 10.5 3 14-1.3l116-137.5c3.5-4.3 3-10.6-1.3-14l-42.7-36z"/>
                <rect width="175" height="425" x="254" y="409" fill="#FFAC23" rx="90"/>
                <rect width="175" height="335" x="254" y="409" fill="#377ECB" rx="90"/>
                <circle cx="403" cy="44" r="44" fill="#FFE4B8"/>
                <path fill="#FFE4B8" d="M149 338h122.5v70H339c49.7 0 90 40.3 90 90v-4c0 49.7-40.3 90-90 90H239c-49.7 0-90-40.3-90-90V338z"/>
                <path fill="#E9CC9D" d="M255.4 433.3L174 373.8l97.5-35.8v70H339c49.7 0 90 40.3 90 90v-4c0 49.7-40.3 90-90 90H239c-49.7 0-66.8-33-38-73.5l54.4-77.2z"/>
                <path fill="#377ECB" d="M149 409.7c0 25.4 123 36.7 123-1.7h67c49.7 0 90 40.3 90 90v-4c0 49.7-16.7 126.6-39.3 171 0 0-1.6 12-10 12-8.6 0-125.5 32.3-125.5 32.3V624c0-22-18-40-40-40H149V409.7z"/>
                <path fill="#F0350F" d="M293 510.3h83V591l-41.2-30.8L293 591v-80.7z"/>
                <path fill="#D92906" d="M376 567.4v-52.6h-83v27l31.2 26 10-7.5L376 591v-23.6z"/>
                <path fill="#FFAC22" d="M321.2 490.6V468H293v73.4h28.2v-22.6h26.6v22.6H376V468h-28.2v22.6h-26.6z"/>
                <g transform="translate(149 88)">
                    <rect width="150" height="176" y="130" fill="#8B572A" rx="100"/>
                    <path fill="#FFE5B8" d="M0 75C0 33.6 33.6 0 75 0s75 33.6 75 75v142l-32-23.6c-23.6-17.3-62-17.4-85.5 0L0 217V75z"/>
                    <path fill="#FFE4B8" d="M77 230c10.5 0 19-4.7 19-10.5s-8.5-1.7-19-1.7-19-4-19 1.7c0 5.8 8.5 10.5 19 10.5z"/>
                    <path fill="#EF3510" d="M0 117.6V94h150v103l-74.4-54.6-15.8 11.4L0 197v-79.4z"/>
                    <path fill="#D92A07" d="M0 117.6V94h150v103l-74.4-54.6-15.8 11.4L0 117.6z"/>
                    <circle cx="36" cy="125" r="16" fill="#FFF"/>
                    <circle cx="114" cy="125" r="16" fill="#FFF"/>
                    <circle cx="36" cy="125" r="6" fill="#4E4E4E"/>
                    <circle cx="114" cy="125" r="6" fill="#4E4E4E"/>
                </g>
            </g>
        </g>
    </g>
</svg>